<svg xmlns="http://www.w3.org/2000/svg" width="1200" height="800" viewBox="0 0 1200 800"><defs>
<filter id="graphite" x="-5%" y="-5%" width="110%" height="110%"><feTurbulence type="fractalNoise" baseFrequency="0.035" numOctaves="2" seed="8913" result="n"/><feDisplacementMap in="SourceGraphic" in2="n" scale="4" xChannelSelector="R" yChannelSelector="G" result="d"/><feTurbulence type="fractalNoise" baseFrequency="1.1" numOctaves="1" seed="4577" result="g"/><feColorMatrix in="g" type="matrix" values="0 0 0 0 0  0 0 0 0 0  0 0 0 0 0  0 0 0 -1.6 1.5" result="ga"/><feComposite in="d" in2="ga" operator="in"/></filter>
<filter id="wash" x="-30%" y="-30%" width="160%" height="160%"><feTurbulence type="fractalNoise" baseFrequency="0.006" numOctaves="5" seed="3034" result="n"/><feDisplacementMap in="SourceGraphic" in2="n" scale="180" xChannelSelector="R" yChannelSelector="G" result="d"/><feGaussianBlur in="d" stdDeviation="8" result="b"/><feTurbulence type="fractalNoise" baseFrequency="0.012" numOctaves="3" seed="5284" result="gr"/><feColorMatrix in="gr" type="matrix" values="0 0 0 0 0  0 0 0 0 0  0 0 0 0 0  0 0 0 -1.1 1.2" result="gra"/><feComposite in="b" in2="gra" operator="in" result="w"/><feMorphology in="d" operator="erode" radius="3" result="e"/><feComposite in="d" in2="e" operator="out" result="edge"/><feGaussianBlur in="edge" stdDeviation="1.4" result="rim"/><feMerge><feMergeNode in="w"/><feMergeNode in="rim"/><feMergeNode in="rim"/></feMerge></filter>
<filter id="wet" x="-10%" y="-10%" width="120%" height="120%"><feTurbulence type="fractalNoise" baseFrequency="0.02" numOctaves="3" seed="7825" result="n"/><feDisplacementMap in="SourceGraphic" in2="n" scale="14" xChannelSelector="R" yChannelSelector="G"/></filter>
<filter id="bloom" x="-50%" y="-50%" width="200%" height="200%"><feGaussianBlur stdDeviation="18"/></filter>
<filter id="halo" x="-50%" y="-50%" width="200%" height="200%"><feGaussianBlur stdDeviation="6"/></filter>
<filter id="flare" x="-50%" y="-50%" width="200%" height="200%"><feGaussianBlur stdDeviation="2.5 1"/></filter>
<filter id="streak" filterUnits="userSpaceOnUse" x="0" y="0" width="1200" height="800"><feGaussianBlur stdDeviation="2.5"/></filter>
<filter id="haze" filterUnits="userSpaceOnUse" x="0" y="0" width="1200" height="800"><feGaussianBlur stdDeviation="26"/></filter>
<filter id="stamp" x="-10%" y="-10%" width="120%" height="120%"><feTurbulence type="fractalNoise" baseFrequency="0.25" numOctaves="2" seed="6065" result="n"/><feColorMatrix in="n" type="matrix" values="0 0 0 0 0  0 0 0 0 0  0 0 0 0 0  0 0 0 -2.2 1.9" result="a"/><feComposite in="SourceGraphic" in2="a" operator="in"/></filter>
<filter id="grain" x="0" y="0" width="100%" height="100%"><feTurbulence type="fractalNoise" baseFrequency="0.85" numOctaves="2" seed="3154"/><feColorMatrix type="matrix" values="0 0 0 0 0.93  0 0 0 0 0.91  0 0 0 0 0.86  0 0 0 -0.9 0.62"/></filter>
</defs><style>
:root { --ease: ease-in-out; }
.m { animation-duration: var(--period); animation-delay: var(--delay); animation-timing-function: var(--ease); animation-iteration-count: infinite; }
.blink { animation-name: blink; } .doze { animation-name: doze; } .flicker { animation-name: flicker; } .breathe { animation-name: breathe; }
.shimmer { animation-name: shimmer; transform-box: fill-box; transform-origin: center; }
.sway { animation-name: sway; transform-box: view-box; } .swing { animation-name: swing; transform-box: view-box; }
.run { animation-name: run; } .rise { animation-name: rise; } .run, .rise { animation-timing-function: linear; }
@keyframes blink { 0%, 40% { opacity: 1; } 55%, 92% { opacity: var(--depth); } }
@keyframes doze { 0%, 70% { opacity: 1; } 75%, 92% { opacity: var(--depth); } 93% { opacity: 1; } }
@keyframes flicker { 30% { opacity: var(--depth); } 36% { opacity: 1; } 64% { opacity: calc((1 + var(--depth)) / 2); } }
@keyframes breathe { 50% { opacity: var(--depth); } }
@keyframes shimmer { 25% { transform: translateX(calc(var(--depth) * 1px)) scaleX(1.25); } 75% { transform: translateX(calc(var(--depth) * -0.6px)) scaleX(0.8); } }
@keyframes sway { 25% { transform: rotate(calc(var(--depth) * 1deg)); } 75% { transform: rotate(calc(var(--depth) * -1deg)); } }
@keyframes swing { 50% { transform: scaleX(var(--depth)); } }
@keyframes run { to { stroke-dashoffset: -100; } }
@keyframes rise { to { transform: translateY(calc(var(--depth) * -1px)); opacity: 0; } }
@media (prefers-reduced-motion: reduce) { .m { animation: none; } }
</style><rect width="1200" height="800" fill="#0b0b0d"/>
<g class="m breathe" style="--period:11.3s;--delay:-1.4s;--depth:0.65"><g fill="none" filter="url(#streak)" style="mix-blend-mode:screen" opacity="0.6"><path d="M-150,49.5 C420,-32.4 720,512.1 1350,432.2" stroke="#fffaf0" stroke-width="3.1" opacity="0.5"/><path d="M-150,88.5 C420,56.5 720,501.3 1350,486.8" stroke="#f5c48a" stroke-width="6.7" opacity="0.2"/><path d="M-150,66.6 C420,-0.2 720,514.1 1350,456.1" stroke="#f0a476" stroke-width="2.5" opacity="0.5"/><path d="M-150,69.4 C420,-2.7 720,522.3 1350,460.1" stroke="#f0a476" stroke-width="5" opacity="0.3"/><path d="M-150,10.5 C420,-51 720,452.8 1350,377.6" stroke="#f0a476" stroke-width="8.5" opacity="0.5"/><path d="M-150,67.4 C420,-33.7 720,549.2 1350,457.2" stroke="#f0a476" stroke-width="3.8" opacity="0.5"/><path d="M-150,-41.8 C420,-73 720,370.2 1350,304.3" stroke="#d9644a" stroke-width="3.5" opacity="0.3"/><path d="M-150,12.8 C420,-60.2 720,466.5 1350,380.8" stroke="#f0a476" stroke-width="6.6" opacity="0.4"/><path d="M-150,-22.5 C420,-89.7 720,425.5 1350,331.4" stroke="#d9644a" stroke-width="3.2" opacity="0.3"/><path d="M-150,40.1 C420,-3 720,463.9 1350,419" stroke="#fffaf0" stroke-width="7.4" opacity="0.5"/><path d="M-150,68.9 C420,-2.4 720,521 1350,459.3" stroke="#f0a476" stroke-width="6.1" opacity="0.3"/><path d="M-150,81.5 C420,46.6 720,497.1 1350,477" stroke="#f0a476" stroke-width="2.7" opacity="0.2"/><path d="M-150,33.7 C420,-15 720,463.2 1350,410.1" stroke="#fffaf0" stroke-width="3.4" opacity="0.2"/><path d="M-150,-44.7 C420,-118.5 720,409.8 1350,300.3" stroke="#d9644a" stroke-width="7.4" opacity="0.3"/><path d="M-150,16.2 C420,-81 720,494.2 1350,385.6" stroke="#f0a476" stroke-width="1.1" opacity="0.4"/><path d="M-150,151.8 C420,95.5 720,588.8 1350,575.4" stroke="#f5c48a" stroke-width="7.1" opacity="0.1"/><path d="M-150,113.8 C420,23 720,585.3 1350,522.2" stroke="#f5c48a" stroke-width="4.3" opacity="0.2"/><path d="M-150,21.8 C420,-42.4 720,466.7 1350,393.4" stroke="#f0a476" stroke-width="4.1" opacity="0.3"/><path d="M-150,30.9 C420,-64 720,506.6 1350,406.2" stroke="#f0a476" stroke-width="7.7" opacity="0.1"/><path d="M-150,43.6 C420,-58.7 720,526.5 1350,423.9" stroke="#fffaf0" stroke-width="6.6" opacity="0.5"/><path d="M-150,48.1 C420,-18.8 720,495.7 1350,430.2" stroke="#fffaf0" stroke-width="4.6" opacity="0.2"/><path d="M-150,28.6 C420,-72.6 720,510.5 1350,402.9" stroke="#f0a476" stroke-width="6.3" opacity="0.5"/><path d="M-150,104.1 C420,5 720,584 1350,508.7" stroke="#f5c48a" stroke-width="3.8" opacity="0.3"/><path d="M-150,51.3 C420,-48.3 720,531.7 1350,434.7" stroke="#fffaf0" stroke-width="8.2" opacity="0.3"/></g></g>
<g class="m breathe" style="--period:9.7s;--delay:-10.3s;--depth:0.61"><g fill="none" filter="url(#haze)" style="mix-blend-mode:screen" opacity="0.6"><path d="M-150,49.5 C420,-32.4 720,512.1 1350,432.2" stroke="#fffaf0" stroke-width="3.1" opacity="0.5"/><path d="M-150,88.5 C420,56.5 720,501.3 1350,486.8" stroke="#f5c48a" stroke-width="6.7" opacity="0.2"/><path d="M-150,66.6 C420,-0.2 720,514.1 1350,456.1" stroke="#f0a476" stroke-width="2.5" opacity="0.5"/><path d="M-150,69.4 C420,-2.7 720,522.3 1350,460.1" stroke="#f0a476" stroke-width="5" opacity="0.3"/><path d="M-150,10.5 C420,-51 720,452.8 1350,377.6" stroke="#f0a476" stroke-width="8.5" opacity="0.5"/><path d="M-150,67.4 C420,-33.7 720,549.2 1350,457.2" stroke="#f0a476" stroke-width="3.8" opacity="0.5"/><path d="M-150,-41.8 C420,-73 720,370.2 1350,304.3" stroke="#d9644a" stroke-width="3.5" opacity="0.3"/><path d="M-150,12.8 C420,-60.2 720,466.5 1350,380.8" stroke="#f0a476" stroke-width="6.6" opacity="0.4"/><path d="M-150,-22.5 C420,-89.7 720,425.5 1350,331.4" stroke="#d9644a" stroke-width="3.2" opacity="0.3"/><path d="M-150,40.1 C420,-3 720,463.9 1350,419" stroke="#fffaf0" stroke-width="7.4" opacity="0.5"/><path d="M-150,68.9 C420,-2.4 720,521 1350,459.3" stroke="#f0a476" stroke-width="6.1" opacity="0.3"/><path d="M-150,81.5 C420,46.6 720,497.1 1350,477" stroke="#f0a476" stroke-width="2.7" opacity="0.2"/><path d="M-150,33.7 C420,-15 720,463.2 1350,410.1" stroke="#fffaf0" stroke-width="3.4" opacity="0.2"/><path d="M-150,-44.7 C420,-118.5 720,409.8 1350,300.3" stroke="#d9644a" stroke-width="7.4" opacity="0.3"/><path d="M-150,16.2 C420,-81 720,494.2 1350,385.6" stroke="#f0a476" stroke-width="1.1" opacity="0.4"/><path d="M-150,151.8 C420,95.5 720,588.8 1350,575.4" stroke="#f5c48a" stroke-width="7.1" opacity="0.1"/><path d="M-150,113.8 C420,23 720,585.3 1350,522.2" stroke="#f5c48a" stroke-width="4.3" opacity="0.2"/><path d="M-150,21.8 C420,-42.4 720,466.7 1350,393.4" stroke="#f0a476" stroke-width="4.1" opacity="0.3"/><path d="M-150,30.9 C420,-64 720,506.6 1350,406.2" stroke="#f0a476" stroke-width="7.7" opacity="0.1"/><path d="M-150,43.6 C420,-58.7 720,526.5 1350,423.9" stroke="#fffaf0" stroke-width="6.6" opacity="0.5"/><path d="M-150,48.1 C420,-18.8 720,495.7 1350,430.2" stroke="#fffaf0" stroke-width="4.6" opacity="0.2"/><path d="M-150,28.6 C420,-72.6 720,510.5 1350,402.9" stroke="#f0a476" stroke-width="6.3" opacity="0.5"/><path d="M-150,104.1 C420,5 720,584 1350,508.7" stroke="#f5c48a" stroke-width="3.8" opacity="0.3"/><path d="M-150,51.3 C420,-48.3 720,531.7 1350,434.7" stroke="#fffaf0" stroke-width="8.2" opacity="0.3"/></g></g>
<g filter="url(#graphite)" opacity=".7"><g fill="none" stroke="#cfc8bb" stroke-linecap="round" ><path d="M-11.2,591 Q420.1,595.8 1212.3,591" stroke-width="1.1"/><path d="M1043.3,592.1 Q1060.1,591.9 1074.5,592.5" stroke-width="1.1"/><path d="M1043.2,591.7 Q1060.7,592.2 1072.4,593.1" stroke-width="0.8" opacity=".6"/><path d="M971.4,592.2 Q991.5,591.7 1024.3,591.6" stroke-width="1.1"/><path d="M970.2,592.6 Q993.2,591.8 1019.6,589.9" stroke-width="0.8" opacity=".6"/><path d="M1116.8,592.1 Q1137.6,591.8 1167.3,592.4" stroke-width="1.1"/><path d="M31.5,592.2 Q55,591.7 82.2,591.8" stroke-width="1.1"/><path d="M33.8,594.2 Q57.3,594.8 77.4,594.4" stroke-width="0.8" opacity=".6"/><path d="M548.4,594.8 Q579.7,596.2 608.5,596" stroke-width="1.1"/><path d="M99.2,594.9 Q114.8,595.2 127.3,595.5" stroke-width="1.1"/><path d="M966.5,594.9 Q985.3,594.7 1015.8,596.1" stroke-width="1.1"/><path d="M472.7,595 Q499.2,595.4 527,595.5" stroke-width="1.1"/><path d="M471.9,594.1 Q494.5,593.5 515.9,594.4" stroke-width="0.8" opacity=".6"/><path d="M164.7,599 Q177,599.4 189,600.3" stroke-width="1.1"/><path d="M887,599.2 Q907.1,598.7 939.6,599.9" stroke-width="1.1"/><path d="M890.1,597.5 Q915.9,599.7 934,601.4" stroke-width="0.8" opacity=".6"/><path d="M309.7,599.2 Q336.9,599 366.3,599.9" stroke-width="1.1"/><path d="M1172.2,604.8 Q1197.8,605.9 1228.6,606.2" stroke-width="1.1"/><path d="M1197.8,604.9 Q1216,605.1 1244.1,605.3" stroke-width="1.1"/><path d="M1146.4,604.8 Q1169.1,604.9 1196.1,605.5" stroke-width="1.1"/><path d="M1152.7,602.5 Q1167.6,603.1 1187,604.1" stroke-width="0.8" opacity=".6"/><path d="M1115.3,604.9 Q1131.1,605 1151.5,604.9" stroke-width="1.1"/><path d="M402.2,611.7 Q429.9,613.1 450.3,613" stroke-width="1.1"/><path d="M404.4,614.2 Q420.9,613 441,610.6" stroke-width="0.8" opacity=".6"/><path d="M1158.4,611.7 Q1192,612.7 1216.3,612.3" stroke-width="1.1"/><path d="M172.2,611.8 Q192.2,611.3 236.3,612.9" stroke-width="1.1"/><path d="M330.3,619.9 Q368.2,619.3 393.3,620.1" stroke-width="1.1"/><path d="M345,619.8 Q385.7,620.1 421.5,621" stroke-width="1.1"/><path d="M865.7,620 Q889.6,619.3 917.2,618.9" stroke-width="1.1"/><path d="M964.2,619.9 Q1002.2,619.9 1037.6,620.7" stroke-width="1.1"/><path d="M1000.4,629.1 Q1012.5,629.2 1028.5,629.7" stroke-width="1.1"/><path d="M1000,630.4 Q1012,629.7 1035.6,628.1" stroke-width="0.8" opacity=".6"/><path d="M914,629.1 Q946.6,629.3 972.6,629.4" stroke-width="1.1"/><path d="M655.7,629.3 Q671.8,628.7 701,627.8" stroke-width="1.1"/><path d="M659.4,629 Q671.8,628.3 691.1,627.9" stroke-width="0.8" opacity=".6"/><path d="M239.7,639.6 Q277.3,640.9 330.4,639.4" stroke-width="1.1"/><path d="M873.5,639.5 Q901.2,639.1 928.3,640" stroke-width="1.1"/><path d="M870,640.7 Q890,642.1 921,643.1" stroke-width="0.8" opacity=".6"/><path d="M148.9,639.4 Q180.6,640.8 203.1,640.5" stroke-width="1.1"/><path d="M451.3,651 Q481,650.5 535.2,652" stroke-width="1.1"/><path d="M288,651 Q326.9,649.9 370.9,650.8" stroke-width="1.1"/><path d="M286.4,653.7 Q320.7,652.6 366.4,653.6" stroke-width="0.8" opacity=".6"/><path d="M723,651 Q766.8,651.7 808.8,651.4" stroke-width="1.1"/><path d="M851.4,650.9 Q871.4,651.3 897.3,651.7" stroke-width="1.1"/><path d="M53.5,663.6 Q102.4,661.7 153.5,662.8" stroke-width="1.1"/><path d="M26.8,663.6 Q65.6,662.4 128.3,662.5" stroke-width="1.1"/><path d="M27.1,665.6 Q62,665.1 121.7,662.7" stroke-width="0.8" opacity=".6"/><path d="M411.5,663.5 Q450.5,664.4 493.2,664.5" stroke-width="1.1"/><path d="M807.2,663.5 Q831.8,664.4 871.8,663.9" stroke-width="1.1"/><path d="M807.9,661.2 Q837.3,662.5 874.3,661.8" stroke-width="0.8" opacity=".6"/><path d="M151.8,677.1 Q183.2,677.5 201.6,677.2" stroke-width="1.1"/><path d="M509.1,677.3 Q536.4,676.7 552.9,676.3" stroke-width="1.1"/><path d="M1040.2,677.2 Q1065.9,675.9 1116.9,675.9" stroke-width="1.1"/><path d="M897.6,677.2 Q922.7,677.2 939.5,676.5" stroke-width="1.1"/><path d="M158.1,691.8 Q227.9,692.9 275.5,690.9" stroke-width="1.1"/><path d="M674.7,691.7 Q742.9,690.8 788.5,692" stroke-width="1.1"/><path d="M256.5,691.7 Q275.6,691.7 304.3,691.8" stroke-width="1.1"/><path d="M735.4,691.7 Q791.5,690.2 846.8,691.7" stroke-width="1.1"/><path d="M1053.3,707.3 Q1086.1,707.4 1123.7,707.4" stroke-width="1.1"/><path d="M570.5,707.4 Q620.1,708.4 694.2,706.8" stroke-width="1.1"/><path d="M573.4,704.7 Q624,706.4 698.3,707.7" stroke-width="0.8" opacity=".6"/><path d="M111,707.3 Q133.7,707.1 169.1,707.7" stroke-width="1.1"/><path d="M1170.9,723.9 Q1234.8,722.1 1324,723.9" stroke-width="1.1"/><path d="M144.2,723.9 Q215.4,724.8 267.8,724.4" stroke-width="1.1"/><path d="M146.5,724.9 Q196,724.6 266.2,724.3" stroke-width="0.8" opacity=".6"/><path d="M570.1,741.5 Q653.2,740.4 703.4,741.5" stroke-width="1.1"/><path d="M148.9,741.6 Q173.7,740.5 217.9,741.1" stroke-width="1.1"/><path d="M465.1,760.1 Q526,760.7 570.4,760" stroke-width="1.1"/><path d="M466.1,757.3 Q508.3,759.3 572.6,760.2" stroke-width="0.8" opacity=".6"/><path d="M487.6,760.1 Q550.6,759.3 599.3,760" stroke-width="1.1"/><path d="M491.3,758.2 Q533.4,757.9 599.9,758.6" stroke-width="0.8" opacity=".6"/><path d="M977.2,760 Q1081.7,758.5 1154.7,761.1" stroke-width="1.1"/><path d="M982.2,762.8 Q1080.4,762.5 1149.8,759.9" stroke-width="0.8" opacity=".6"/><path d="M23.2,760.1 Q86.4,758.9 130.4,760.9" stroke-width="1.1"/><path d="M315.7,779.5 Q344.5,781 380.6,780.4" stroke-width="1.1"/><path d="M314.6,778.3 Q342.5,781.4 374.5,783" stroke-width="0.8" opacity=".6"/><path d="M576.3,779.6 Q632.2,778.8 707.7,780.1" stroke-width="1.1"/><path d="M576.2,780.5 Q636.1,779.3 696.1,782.3" stroke-width="0.8" opacity=".6"/><path d="M111.7,800 Q182.9,800.8 267.7,799.6" stroke-width="1.1"/><path d="M559.7,800 Q612.2,798.1 693,800.6" stroke-width="1.1"/><path d="M566,798.1 Q622.1,798.9 689,799" stroke-width="0.8" opacity=".6"/><path d="M8.2,800 Q100,802.7 178.1,800.7" stroke-width="1.1"/><path d="M748.2,800 Q803.5,801.3 850.1,801" stroke-width="1.1"/></g></g>
<g fill="#050505"><ellipse cx="889.8" cy="508.5" rx="6.7" ry="8.1"/><path d="M879.1,519.3 L900.6,519.3 L904.1,560.5 L876.3,560.5 Z"/><rect x="882.6" y="558.7" width="5.4" height="32.3"/><rect x="891.6" y="558.7" width="5.4" height="32.3"/><ellipse cx="934.6" cy="529.7" rx="5.5" ry="6.6"/><path d="M925.8,538.5 L943.4,538.5 L947.5,572.1 L924.8,572.1 Z"/><rect x="929.9" y="570.7" width="4.4" height="26.3"/><rect x="937.2" y="570.7" width="4.4" height="26.3"/></g>
<g style="mix-blend-mode:screen"><g fill="#b5683a"><circle cx="749.8" cy="576.2" r="4" fill="#b5683a"/><g class="m shimmer" style="--period:3.2s;--delay:-3.3s;--depth:1.58"><rect x="743.8" y="594.3" width="11.3" height="2" opacity="0.9"/></g><g class="m shimmer" style="--period:3.2s;--delay:-3s;--depth:1.72"><rect x="731.7" y="600.2" width="29.5" height="2.1" opacity="0.9"/></g><g class="m shimmer" style="--period:3.2s;--delay:-2.9s;--depth:1.91"><rect x="740.6" y="608" width="28.6" height="2.2" opacity="0.9"/></g><g class="m shimmer" style="--period:3.2s;--delay:-2.6s;--depth:2.13"><rect x="738.4" y="617.1" width="23.5" height="2.4" opacity="0.8"/></g><g class="m shimmer" style="--period:3.2s;--delay:-2.4s;--depth:2.37"><rect x="741.8" y="627.5" width="23.5" height="2.5" opacity="0.8"/></g><g class="m shimmer" style="--period:3.2s;--delay:-2.3s;--depth:2.65"><rect x="731" y="639" width="36.6" height="2.7" opacity="0.8"/></g><g class="m shimmer" style="--period:3.2s;--delay:-2s;--depth:2.95"><rect x="731.2" y="651.5" width="31.8" height="2.9" opacity="0.8"/></g><g class="m shimmer" style="--period:3.2s;--delay:-1.9s;--depth:3.27"><rect x="725.1" y="664.9" width="55.2" height="3.1" opacity="0.7"/></g><g class="m shimmer" style="--period:3.2s;--delay:-1.7s;--depth:3.61"><rect x="735.3" y="679.2" width="29.6" height="3.3" opacity="0.7"/></g><g class="m shimmer" style="--period:3.2s;--delay:-1.5s;--depth:3.97"><rect x="735.3" y="694.3" width="25" height="3.5" opacity="0.7"/></g><g class="m shimmer" style="--period:3.2s;--delay:-1.2s;--depth:4.35"><rect x="726" y="710.1" width="46.2" height="3.7" opacity="0.6"/></g><g class="m shimmer" style="--period:3.2s;--delay:-1.1s;--depth:4.75"><rect x="719.3" y="726.7" width="55" height="3.9" opacity="0.6"/></g><g class="m shimmer" style="--period:3.2s;--delay:-0.9s;--depth:5.16"><rect x="731" y="744.1" width="38.7" height="4.2" opacity="0.5"/></g><g class="m shimmer" style="--period:3.2s;--delay:-0.7s;--depth:5.59"><rect x="706.2" y="762.1" width="88.7" height="4.5" opacity="0.5"/></g><g class="m shimmer" style="--period:3.2s;--delay:-0.5s;--depth:6.04"><rect x="734.2" y="780.7" width="36.4" height="4.7" opacity="0.4"/></g><g class="m shimmer" style="--period:3.2s;--delay:-0.2s;--depth:6.5"><rect x="697.8" y="800" width="94.1" height="5" opacity="0.4"/></g></g><g class="m breathe" style="--period:7.6s;--delay:-2s;--depth:0.75"><rect x="0" y="574.7" width="1200" height="3" fill="#f0a476" opacity=".8" filter="url(#flare)"/><rect x="748.8" y="416.2" width="2" height="320" fill="#f5c48a" opacity=".6" filter="url(#flare)"/><circle cx="749.8" cy="576.2" r="60" fill="#f0a476" opacity=".5" filter="url(#bloom)"/><circle cx="749.8" cy="576.2" r="6" fill="#fffaf2"/></g></g>
<g fill="none" stroke="#d8d2c6" stroke-width="2.2" stroke-linecap="round" filter="url(#stamp)"><path d="M118.6,690.5 A46,46 0 0 1 107.9,755.4 M86.6,763.5 A46,46 0 0 1 35.7,721.8 M39.4,699.3 A46,46 0 0 1 100.9,676 M129.9,722.7 L135.9,723"/><path d="M123.2,729.5 A40.3,40.3 0 1 1 122.9,709.5 M108.1,752.3 L111.7,757.1"/><path d="M80.2,685.1 A34.7,34.7 0 0 1 119.8,715 M117.7,732 A34.7,34.7 0 0 1 72.1,751.4 M58.4,741 A34.7,34.7 0 0 1 64.4,691.8 M101.9,690.3 L105,685.1"/><path d="M67.1,698.6 A29,29 0 0 1 108.5,701.8 M114.7,714.8 A29,29 0 0 1 91.1,749 M76.8,747.8 A29,29 0 0 1 59,710.4 M83.3,691 L83.1,685"/><path d="M100.2,736.8 A23.3,23.3 0 1 1 100.3,736.7" stroke-dasharray="2 5"/><path d="M68.5,728.5 A17.7,17.7 0 1 1 68.5,728.6" stroke-dasharray="2 5"/><circle cx="84" cy="720" r="2.5" fill="#d8d2c6"/></g>
<rect width="1200" height="800" filter="url(#grain)" opacity="0.14"/></svg>