<svg xmlns="http://www.w3.org/2000/svg" width="1200" height="800" viewBox="0 0 1200 800"><defs>
<filter id="graphite" x="-5%" y="-5%" width="110%" height="110%"><feTurbulence type="fractalNoise" baseFrequency="0.035" numOctaves="2" seed="4168" result="n"/><feDisplacementMap in="SourceGraphic" in2="n" scale="4" xChannelSelector="R" yChannelSelector="G" result="d"/><feTurbulence type="fractalNoise" baseFrequency="1.1" numOctaves="1" seed="8459" result="g"/><feColorMatrix in="g" type="matrix" values="0 0 0 0 0  0 0 0 0 0  0 0 0 0 0  0 0 0 -1.6 1.5" result="ga"/><feComposite in="d" in2="ga" operator="in"/></filter>
<filter id="wash" x="-30%" y="-30%" width="160%" height="160%"><feTurbulence type="fractalNoise" baseFrequency="0.006" numOctaves="5" seed="3386" result="n"/><feDisplacementMap in="SourceGraphic" in2="n" scale="180" xChannelSelector="R" yChannelSelector="G" result="d"/><feGaussianBlur in="d" stdDeviation="8" result="b"/><feTurbulence type="fractalNoise" baseFrequency="0.012" numOctaves="3" seed="2632" result="gr"/><feColorMatrix in="gr" type="matrix" values="0 0 0 0 0  0 0 0 0 0  0 0 0 0 0  0 0 0 -1.1 1.2" result="gra"/><feComposite in="b" in2="gra" operator="in" result="w"/><feMorphology in="d" operator="erode" radius="3" result="e"/><feComposite in="d" in2="e" operator="out" result="edge"/><feGaussianBlur in="edge" stdDeviation="1.4" result="rim"/><feMerge><feMergeNode in="w"/><feMergeNode in="rim"/><feMergeNode in="rim"/></feMerge></filter>
<filter id="wet" x="-10%" y="-10%" width="120%" height="120%"><feTurbulence type="fractalNoise" baseFrequency="0.02" numOctaves="3" seed="1287" result="n"/><feDisplacementMap in="SourceGraphic" in2="n" scale="14" xChannelSelector="R" yChannelSelector="G"/></filter>
<filter id="bloom" x="-50%" y="-50%" width="200%" height="200%"><feGaussianBlur stdDeviation="18"/></filter>
<filter id="halo" x="-50%" y="-50%" width="200%" height="200%"><feGaussianBlur stdDeviation="6"/></filter>
<filter id="flare" x="-50%" y="-50%" width="200%" height="200%"><feGaussianBlur stdDeviation="2.5 1"/></filter>
<filter id="streak" filterUnits="userSpaceOnUse" x="0" y="0" width="1200" height="800"><feGaussianBlur stdDeviation="2.5"/></filter>
<filter id="haze" filterUnits="userSpaceOnUse" x="0" y="0" width="1200" height="800"><feGaussianBlur stdDeviation="26"/></filter>
<filter id="stamp" x="-10%" y="-10%" width="120%" height="120%"><feTurbulence type="fractalNoise" baseFrequency="0.25" numOctaves="2" seed="9781" result="n"/><feColorMatrix in="n" type="matrix" values="0 0 0 0 0  0 0 0 0 0  0 0 0 0 0  0 0 0 -2.2 1.9" result="a"/><feComposite in="SourceGraphic" in2="a" operator="in"/></filter>
<filter id="grain" x="0" y="0" width="100%" height="100%"><feTurbulence type="fractalNoise" baseFrequency="0.85" numOctaves="2" seed="2696"/><feColorMatrix type="matrix" values="0 0 0 0 0.93  0 0 0 0 0.91  0 0 0 0 0.86  0 0 0 -0.9 0.62"/></filter>
</defs><style>
:root { --ease: cubic-bezier(.8, 0, .2, 1); }
.m { animation-duration: var(--period); animation-delay: var(--delay); animation-timing-function: var(--ease); animation-iteration-count: infinite; }
.blink { animation-name: blink; } .doze { animation-name: doze; } .flicker { animation-name: flicker; } .breathe { animation-name: breathe; }
.shimmer { animation-name: shimmer; transform-box: fill-box; transform-origin: center; }
.sway { animation-name: sway; transform-box: view-box; } .swing { animation-name: swing; transform-box: view-box; }
.run { animation-name: run; } .rise { animation-name: rise; } .run, .rise { animation-timing-function: linear; }
@keyframes blink { 0%, 40% { opacity: 1; } 55%, 92% { opacity: var(--depth); } }
@keyframes doze { 0%, 70% { opacity: 1; } 75%, 92% { opacity: var(--depth); } 93% { opacity: 1; } }
@keyframes flicker { 30% { opacity: var(--depth); } 36% { opacity: 1; } 64% { opacity: calc((1 + var(--depth)) / 2); } }
@keyframes breathe { 50% { opacity: var(--depth); } }
@keyframes shimmer { 25% { transform: translateX(calc(var(--depth) * 1px)) scaleX(1.25); } 75% { transform: translateX(calc(var(--depth) * -0.6px)) scaleX(0.8); } }
@keyframes sway { 25% { transform: rotate(calc(var(--depth) * 1deg)); } 75% { transform: rotate(calc(var(--depth) * -1deg)); } }
@keyframes swing { 50% { transform: scaleX(var(--depth)); } }
@keyframes run { to { stroke-dashoffset: -100; } }
@keyframes rise { to { transform: translateY(calc(var(--depth) * -1px)); opacity: 0; } }
@media (prefers-reduced-motion: reduce) { .m { animation: none; } }
</style><rect width="1200" height="800" fill="#23211e"/>
<clipPath id="field"><polygon points="296.7,0 1200,0 1200,800 727.8,800"/></clipPath>
<polygon points="296.7,0 1200,0 1200,800 727.8,800" fill="#ebe5da"/>
<line x1="282.7" y1="0" x2="713.8" y2="800" stroke="#ebe5da" stroke-width="3"/>
<line x1="270.7" y1="0" x2="701.8" y2="800" stroke="#ebe5da" stroke-width="1.5"/>
<g fill="none" stroke="#ebe5da" stroke-linecap="round" ><path d="M433.4,836.8 L996.1,146.7" stroke-width="3.4"/><path d="M441.1,843.2 L1000.8,150.5" stroke-width="3.4"/><path d="M971.3,172.5 L980.6,180" stroke-width="3.4"/><path d="M954.5,193.2 L963.8,200.8" stroke-width="3.4"/><path d="M937.7,214 L947,221.5" stroke-width="3.4"/><path d="M970.4,183.2 L921.4,246.7" stroke-width="3.4"/></g><g fill="#ebe5da"><ellipse cx="908.4" cy="525.3" rx="5.3" ry="6.3"/><path d="M900,533.7 L916.9,533.7 L918.5,566.1 L896.7,566.1 Z"/><rect x="901.6" y="564.7" width="4.2" height="25.4"/><rect x="908.7" y="564.7" width="4.2" height="25.4"/><ellipse cx="955.2" cy="530.4" rx="5.4" ry="6.4"/><path d="M946.6,539 L963.7,539 L964.7,571.8 L942.6,571.8 Z"/><rect x="947.6" y="570.4" width="4.3" height="25.7"/><rect x="954.7" y="570.4" width="4.3" height="25.7"/><ellipse cx="998.9" cy="525.6" rx="6.2" ry="7.5"/><path d="M988.9,535.6 L1008.9,535.6 L1012.6,573.8 L986.8,573.8 Z"/><rect x="992.6" y="572.2" width="5" height="29.9"/><rect x="1000.9" y="572.2" width="5" height="29.9"/></g>
<g clip-path="url(#field)"><g fill="none" stroke="#23211e" stroke-linecap="round" ><path d="M433.4,836.8 L996.1,146.7" stroke-width="3.4"/><path d="M441.1,843.2 L1000.8,150.5" stroke-width="3.4"/><path d="M971.3,172.5 L980.6,180" stroke-width="3.4"/><path d="M954.5,193.2 L963.8,200.8" stroke-width="3.4"/><path d="M937.7,214 L947,221.5" stroke-width="3.4"/><path d="M970.4,183.2 L921.4,246.7" stroke-width="3.4"/></g><g fill="#23211e"><ellipse cx="908.4" cy="525.3" rx="5.3" ry="6.3"/><path d="M900,533.7 L916.9,533.7 L918.5,566.1 L896.7,566.1 Z"/><rect x="901.6" y="564.7" width="4.2" height="25.4"/><rect x="908.7" y="564.7" width="4.2" height="25.4"/><ellipse cx="955.2" cy="530.4" rx="5.4" ry="6.4"/><path d="M946.6,539 L963.7,539 L964.7,571.8 L942.6,571.8 Z"/><rect x="947.6" y="570.4" width="4.3" height="25.7"/><rect x="954.7" y="570.4" width="4.3" height="25.7"/><ellipse cx="998.9" cy="525.6" rx="6.2" ry="7.5"/><path d="M988.9,535.6 L1008.9,535.6 L1012.6,573.8 L986.8,573.8 Z"/><rect x="992.6" y="572.2" width="5" height="29.9"/><rect x="1000.9" y="572.2" width="5" height="29.9"/></g></g>
<g><path d="M625.3,608.3 L807.4,384" stroke="#b5683a" stroke-width="22" opacity=".5" filter="url(#bloom)"/><path d="M625.3,608.3 L807.4,384" stroke="#b5683a" stroke-width="4"/><g class="m run" style="--period:3.4s;--delay:-2.3s;--depth:1"><path d="M625.3,608.3 L807.4,384" fill="none" stroke="#f0a476" stroke-width="4" stroke-linecap="round" pathLength="100" stroke-dasharray="12 88"/></g><g fill="#b5683a" opacity=".8"><g class="m rise" style="--period:3.2s;--delay:-1.3s;--depth:43.07"><circle cx="766.3" cy="402.6" r="2"/></g><g class="m rise" style="--period:2.9s;--delay:-1.5s;--depth:38.12"><circle cx="647.2" cy="518.3" r="1.6"/></g><g class="m rise" style="--period:2.9s;--delay:-1.2s;--depth:25.3"><circle cx="728.2" cy="477" r="1.5"/></g><g class="m rise" style="--period:3.2s;--delay:-0.2s;--depth:35.03"><circle cx="847.6" cy="385.1" r="1.8"/></g><g class="m rise" style="--period:3.5s;--delay:-3.9s;--depth:43.59"><circle cx="636.4" cy="525.6" r="1.1"/></g><g class="m rise" style="--period:2.3s;--delay:-2.3s;--depth:42.99"><circle cx="844.3" cy="315.2" r="2"/></g><g class="m rise" style="--period:2.4s;--delay:-0.8s;--depth:39.65"><circle cx="652.9" cy="595.6" r="1.9"/></g><g class="m rise" style="--period:2.7s;--delay:-0.9s;--depth:44.51"><circle cx="646.9" cy="524.9" r="1.3"/></g><g class="m rise" style="--period:2.7s;--delay:-2.7s;--depth:27.15"><circle cx="752.6" cy="442.1" r="1.1"/></g><g class="m rise" style="--period:2.6s;--delay:-2s;--depth:42.03"><circle cx="709.1" cy="566.8" r="1.2"/></g><g class="m rise" style="--period:2.3s;--delay:-2.5s;--depth:37.68"><circle cx="692.5" cy="511.1" r="1.7"/></g><g class="m rise" style="--period:3.3s;--delay:-2.9s;--depth:43.63"><circle cx="643.9" cy="622.7" r="2.4"/></g><g class="m rise" style="--period:3.5s;--delay:-0.4s;--depth:45.56"><circle cx="868" cy="386.2" r="1.8"/></g><g class="m rise" style="--period:2.6s;--delay:-0.2s;--depth:32.43"><circle cx="628.9" cy="566.6" r="2"/></g></g></g>
<g clip-path="url(#field)"><path d="M625.3,608.3 L807.4,384" stroke="#b5683a" stroke-width="22" opacity=".5" filter="url(#bloom)"/><path d="M625.3,608.3 L807.4,384" stroke="#b5683a" stroke-width="4"/><g class="m run" style="--period:3.4s;--delay:-2.3s;--depth:1"><path d="M625.3,608.3 L807.4,384" fill="none" stroke="#f0a476" stroke-width="4" stroke-linecap="round" pathLength="100" stroke-dasharray="12 88"/></g><g fill="#b5683a" opacity=".8"><g class="m rise" style="--period:3.2s;--delay:-1.3s;--depth:43.07"><circle cx="766.3" cy="402.6" r="2"/></g><g class="m rise" style="--period:2.9s;--delay:-1.5s;--depth:38.12"><circle cx="647.2" cy="518.3" r="1.6"/></g><g class="m rise" style="--period:2.9s;--delay:-1.2s;--depth:25.3"><circle cx="728.2" cy="477" r="1.5"/></g><g class="m rise" style="--period:3.2s;--delay:-0.2s;--depth:35.03"><circle cx="847.6" cy="385.1" r="1.8"/></g><g class="m rise" style="--period:3.5s;--delay:-3.9s;--depth:43.59"><circle cx="636.4" cy="525.6" r="1.1"/></g><g class="m rise" style="--period:2.3s;--delay:-2.3s;--depth:42.99"><circle cx="844.3" cy="315.2" r="2"/></g><g class="m rise" style="--period:2.4s;--delay:-0.8s;--depth:39.65"><circle cx="652.9" cy="595.6" r="1.9"/></g><g class="m rise" style="--period:2.7s;--delay:-0.9s;--depth:44.51"><circle cx="646.9" cy="524.9" r="1.3"/></g><g class="m rise" style="--period:2.7s;--delay:-2.7s;--depth:27.15"><circle cx="752.6" cy="442.1" r="1.1"/></g><g class="m rise" style="--period:2.6s;--delay:-2s;--depth:42.03"><circle cx="709.1" cy="566.8" r="1.2"/></g><g class="m rise" style="--period:2.3s;--delay:-2.5s;--depth:37.68"><circle cx="692.5" cy="511.1" r="1.7"/></g><g class="m rise" style="--period:3.3s;--delay:-2.9s;--depth:43.63"><circle cx="643.9" cy="622.7" r="2.4"/></g><g class="m rise" style="--period:3.5s;--delay:-0.4s;--depth:45.56"><circle cx="868" cy="386.2" r="1.8"/></g><g class="m rise" style="--period:2.6s;--delay:-0.2s;--depth:32.43"><circle cx="628.9" cy="566.6" r="2"/></g></g></g>
<g fill="none" stroke="#ebe5da" stroke-width="2.2" stroke-linecap="round" filter="url(#stamp)"><path d="M114.3,685.4 A46,46 0 1 1 94,675.1 M129.4,712.7 L135.3,711.7"/><path d="M83.1,761.8 A39.2,39.2 0 0 1 42.1,723.6 M46.4,704.7 A39.2,39.2 0 0 1 100.1,688.3 M114.3,701.5 A39.2,39.2 0 0 1 101.7,756.2 M60.4,751.3 L56.8,756.1"/><path d="M62.5,744.2 A32.4,32.4 0 1 1 76.7,751.6"/><path d="M109.4,717 A25.6,25.6 0 1 1 104.9,705.2 M105.5,734 L110.5,737.2"/><path d="M101.8,724.5 A18.8,18.8 0 0 1 80.6,741 M72,737.5 A18.8,18.8 0 0 1 68.2,710.9 M75.6,705.2 A18.8,18.8 0 0 1 100.5,715.3 M97.1,733.5 L101.2,737.8"/><circle cx="84" cy="720" r="2.5" fill="#ebe5da"/></g>
<rect width="1200" height="800" filter="url(#grain)" opacity="0.18"/></svg>